<svg width="23" height="29" viewBox="0 0 23 29" fill="none" xmlns="http://www.w3.org/2000/svg">
    <path d="M1.875 26.875L6 22.75L7.03125 20.6875M14.25 26.875V21.375L8.75 17.25L9.4375 9M8.75 3.5C8.75 3.86467 8.89487 4.21441 9.15273 4.47227C9.41059 4.73013 9.76033 4.875 10.125 4.875C10.4897 4.875 10.8394 4.73013 11.0973 4.47227C11.3551 4.21441 11.5 3.86467 11.5 3.5C11.5 3.13533 11.3551 2.78559 11.0973 2.52773C10.8394 2.26987 10.4897 2.125 10.125 2.125C9.76033 2.125 9.41059 2.26987 9.15273 2.52773C8.89487 2.78559 8.75 3.13533 8.75 3.5Z" stroke="#DCFF2C" stroke-width="2.75" stroke-linecap="round" stroke-linejoin="round"/>
    <path d="M1.875 14.5L3.25 10.375L9.4375 9L14.25 13.125L19.75 14.5" stroke="#DCFF2C" stroke-width="2.75" stroke-linecap="round" stroke-linejoin="round"/>
    <path d="M20.4375 20C20.6198 20 20.7947 19.9276 20.9236 19.7986C21.0526 19.6697 21.125 19.4948 21.125 19.3125C21.125 19.1302 21.0526 18.9553 20.9236 18.8264C20.7947 18.6974 20.6198 18.625 20.4375 18.625C20.2552 18.625 20.0803 18.6974 19.9514 18.8264C19.8224 18.9553 19.75 19.1302 19.75 19.3125C19.75 19.4948 19.8224 19.6697 19.9514 19.7986C20.0803 19.9276 20.2552 20 20.4375 20Z" fill="#4B4B4B" stroke="#DCFF2C" stroke-width="2.75" stroke-linecap="round" stroke-linejoin="round"/>
</svg>
