<svg width="27" height="29" viewBox="0 0 27 29" fill="none" xmlns="http://www.w3.org/2000/svg">
    <path d="M2.125 21.375L9 22.75L10.0312 20.6875M17.25 26.875V21.375L11.75 17.25L13.125 9M13.125 3.5C13.125 3.86467 13.2699 4.21441 13.5277 4.47227C13.7856 4.73013 14.1353 4.875 14.5 4.875C14.8647 4.875 15.2144 4.73013 15.4723 4.47227C15.7301 4.21441 15.875 3.86467 15.875 3.5C15.875 3.13533 15.7301 2.78559 15.4723 2.52773C15.2144 2.26987 14.8647 2.125 14.5 2.125C14.1353 2.125 13.7856 2.26987 13.5277 2.52773C13.2699 2.78559 13.125 3.13533 13.125 3.5Z" stroke="#DCFF2C" stroke-width="2.75" stroke-linecap="round" stroke-linejoin="round"/>
    <path d="M6.25 14.5V10.375L13.125 9L17.25 13.125L21.375 14.5" stroke="#DCFF2C" stroke-width="2.75" stroke-linecap="round" stroke-linejoin="round"/>
    <path d="M24.8125 25.5C24.9948 25.5 25.1697 25.4276 25.2986 25.2986C25.4276 25.1697 25.5 24.9948 25.5 24.8125C25.5 24.6302 25.4276 24.4553 25.2986 24.3264C25.1697 24.1974 24.9948 24.125 24.8125 24.125C24.6302 24.125 24.4553 24.1974 24.3264 24.3264C24.1974 24.4553 24.125 24.6302 24.125 24.8125C24.125 24.9948 24.1974 25.1697 24.3264 25.2986C24.4553 25.4276 24.6302 25.5 24.8125 25.5Z" fill="#DCFF2C" stroke="#DCFF2C" stroke-width="2.75" stroke-linecap="round" stroke-linejoin="round"/>
</svg>
