<svg width="27" height="29" viewBox="0 0 27 29" fill="none" xmlns="http://www.w3.org/2000/svg">
    <path d="M1.62109 21.375L8.49609 22.75L9.52734 20.6875M16.7461 26.875V21.375L11.2461 17.25L12.6211 9M12.6211 3.5C12.6211 3.86467 12.766 4.21441 13.0238 4.47227C13.2817 4.73013 13.6314 4.875 13.9961 4.875C14.3608 4.875 14.7105 4.73013 14.9684 4.47227C15.2262 4.21441 15.3711 3.86467 15.3711 3.5C15.3711 3.13533 15.2262 2.78559 14.9684 2.52773C14.7105 2.26987 14.3608 2.125 13.9961 2.125C13.6314 2.125 13.2817 2.26987 13.0238 2.52773C12.766 2.78559 12.6211 3.13533 12.6211 3.5Z" stroke="#7A7A7A" stroke-width="2.75" stroke-linecap="round" stroke-linejoin="round"/>
    <path d="M5.74609 14.5V10.375L12.6211 9L16.7461 13.125L20.8711 14.5" stroke="#7A7A7A" stroke-width="2.75" stroke-linecap="round" stroke-linejoin="round"/>
    <path d="M24.3086 25.5C24.4909 25.5 24.6658 25.4276 24.7947 25.2986C24.9237 25.1697 24.9961 24.9948 24.9961 24.8125C24.9961 24.6302 24.9237 24.4553 24.7947 24.3264C24.6658 24.1974 24.4909 24.125 24.3086 24.125C24.1263 24.125 23.9514 24.1974 23.8225 24.3264C23.6935 24.4553 23.6211 24.6302 23.6211 24.8125C23.6211 24.9948 23.6935 25.1697 23.8225 25.2986C23.9514 25.4276 24.1263 25.5 24.3086 25.5Z" fill="#7A7A7A" stroke="#7A7A7A" stroke-width="2.75" stroke-linecap="round" stroke-linejoin="round"/>
</svg>
