<svg width="23" height="29" viewBox="0 0 23 29" fill="none" xmlns="http://www.w3.org/2000/svg">
    <path d="M1.50391 21.375L8.37891 22.75L9.41016 20.6875M16.6289 26.875V21.375L11.1289 17.25L12.5039 9M12.5039 3.5C12.5039 3.86467 12.6488 4.21441 12.9066 4.47227C13.1645 4.73013 13.5142 4.875 13.8789 4.875C14.2436 4.875 14.5933 4.73013 14.8512 4.47227C15.109 4.21441 15.2539 3.86467 15.2539 3.5C15.2539 3.13533 15.109 2.78559 14.8512 2.52773C14.5933 2.26987 14.2436 2.125 13.8789 2.125C13.5142 2.125 13.1645 2.26987 12.9066 2.52773C12.6488 2.78559 12.5039 3.13533 12.5039 3.5Z" stroke="#DCFF2C" stroke-width="2.75" stroke-linecap="round" stroke-linejoin="round"/>
    <path d="M5.62891 14.5V10.375L12.5039 9L16.6289 13.125L20.7539 14.5" stroke="#DCFF2C" stroke-width="2.75" stroke-linecap="round" stroke-linejoin="round"/>
</svg>
