<svg width="23" height="29" viewBox="0 0 23 29" fill="none" xmlns="http://www.w3.org/2000/svg">
    <path d="M2 21.375L8.875 22.75L9.90625 20.6875M17.125 26.875V21.375L11.625 17.25L13 9M13 3.5C13 3.86467 13.1449 4.21441 13.4027 4.47227C13.6606 4.73013 14.0103 4.875 14.375 4.875C14.7397 4.875 15.0894 4.73013 15.3473 4.47227C15.6051 4.21441 15.75 3.86467 15.75 3.5C15.75 3.13533 15.6051 2.78559 15.3473 2.52773C15.0894 2.26987 14.7397 2.125 14.375 2.125C14.0103 2.125 13.6606 2.26987 13.4027 2.52773C13.1449 2.78559 13 3.13533 13 3.5Z" stroke="#7A7A7A" stroke-width="2.75" stroke-linecap="round" stroke-linejoin="round"/>
    <path d="M6.125 14.5V10.375L13 9L17.125 13.125L21.25 14.5" stroke="#7A7A7A" stroke-width="2.75" stroke-linecap="round" stroke-linejoin="round"/>
</svg>
