<svg width="33" height="33" viewBox="0 0 33 33" fill="none" xmlns="http://www.w3.org/2000/svg">
    <path d="M6.875 28.875L11 24.75L12.0312 22.6875M19.25 28.875V23.375L13.75 19.25L14.4375 11M13.75 5.5C13.75 5.86467 13.8949 6.21441 14.1527 6.47227C14.4106 6.73013 14.7603 6.875 15.125 6.875C15.4897 6.875 15.8394 6.73013 16.0973 6.47227C16.3551 6.21441 16.5 5.86467 16.5 5.5C16.5 5.13533 16.3551 4.78559 16.0973 4.52773C15.8394 4.26987 15.4897 4.125 15.125 4.125C14.7603 4.125 14.4106 4.26987 14.1527 4.52773C13.8949 4.78559 13.75 5.13533 13.75 5.5Z" stroke="#7A7A7A" stroke-width="2.75" stroke-linecap="round" stroke-linejoin="round"/>
    <path d="M6.875 16.5L8.25 12.375L14.4375 11L19.25 15.125L24.75 16.5" stroke="#7A7A7A" stroke-width="2.75" stroke-linecap="round" stroke-linejoin="round"/>
    <path d="M25.4375 22C25.6198 22 25.7947 21.9276 25.9236 21.7986C26.0526 21.6697 26.125 21.4948 26.125 21.3125C26.125 21.1302 26.0526 20.9553 25.9236 20.8264C25.7947 20.6974 25.6198 20.625 25.4375 20.625C25.2552 20.625 25.0803 20.6974 24.9514 20.8264C24.8224 20.9553 24.75 21.1302 24.75 21.3125C24.75 21.4948 24.8224 21.6697 24.9514 21.7986C25.0803 21.9276 25.2552 22 25.4375 22Z" fill="#7A7A7A" stroke="#7A7A7A" stroke-width="2.75" stroke-linecap="round" stroke-linejoin="round"/>
</svg>
