<svg width="30" height="26" viewBox="0 0 30 26" fill="none" xmlns="http://www.w3.org/2000/svg">
    <path d="M19.6406 8.13281C20.5109 8.13281 21.3455 7.78711 21.9608 7.17176C22.5762 6.5564 22.9219 5.7218 22.9219 4.85156C22.9219 3.98132 22.5762 3.14672 21.9608 2.53137C21.3455 1.91601 20.5109 1.57031 19.6406 1.57031C18.7704 1.57031 17.9358 1.91601 17.3204 2.53137C16.7051 3.14672 16.3594 3.98132 16.3594 4.85156C16.3594 5.7218 16.7051 6.5564 17.3204 7.17176C17.9358 7.78711 18.7704 8.13281 19.6406 8.13281Z" fill="#D4FC07" stroke="#D4FC07" stroke-width="2.625" stroke-miterlimit="2"/>
    <path d="M22.625 19.3164L21.3125 12.0977L14.0938 15.3789L5.5625 13.4102M1.625 23.9298H27.875" stroke="#D4FC07" stroke-width="2.625" stroke-miterlimit="2" stroke-linecap="round" stroke-linejoin="round"/>
    <path d="M4.90625 16.6914C6.71843 16.6914 8.1875 15.2223 8.1875 13.4102C8.1875 11.598 6.71843 10.1289 4.90625 10.1289C3.09407 10.1289 1.625 11.598 1.625 13.4102C1.625 15.2223 3.09407 16.6914 4.90625 16.6914Z" fill="#D4FC07"/>
    <path d="M2.9375 9.47266C3.66237 9.47266 4.25 8.88503 4.25 8.16016C4.25 7.43528 3.66237 6.84766 2.9375 6.84766C2.21263 6.84766 1.625 7.43528 1.625 8.16016C1.625 8.88503 2.21263 9.47266 2.9375 9.47266Z" fill="#D4FC07"/>
    <path d="M21.3125 12.0977L27.875 16.0352L18.0312 19.3164" stroke="#D4FC07" stroke-width="2.625" stroke-miterlimit="2" stroke-linecap="round" stroke-linejoin="round"/>
</svg>
