<svg width="30" height="29" viewBox="0 0 30 29" fill="none" xmlns="http://www.w3.org/2000/svg">
    <path d="M17.3711 3.5C17.3711 3.86467 17.516 4.21441 17.7738 4.47227C18.0317 4.73013 18.3814 4.875 18.7461 4.875C19.1108 4.875 19.4605 4.73013 19.7184 4.47227C19.9762 4.21441 20.1211 3.86467 20.1211 3.5C20.1211 3.13533 19.9762 2.78559 19.7184 2.52773C19.4605 2.26987 19.1108 2.125 18.7461 2.125C18.3814 2.125 18.0317 2.26987 17.7738 2.52773C17.516 2.78559 17.3711 3.13533 17.3711 3.5Z" stroke="#7A7A7A" stroke-width="2.75" stroke-linecap="round" stroke-linejoin="round"/>
    <path d="M27.6836 11.75C27.8659 11.75 28.0408 11.6776 28.1697 11.5486C28.2987 11.4197 28.3711 11.2448 28.3711 11.0625C28.3711 10.8802 28.2987 10.7053 28.1697 10.5764C28.0408 10.4474 27.8659 10.375 27.6836 10.375C27.5013 10.375 27.3264 10.4474 27.1975 10.5764C27.0685 10.7053 26.9961 10.8802 26.9961 11.0625C26.9961 11.2448 27.0685 11.4197 27.1975 11.5486C27.3264 11.6776 27.5013 11.75 27.6836 11.75Z" fill="#7A7A7A" stroke="#7A7A7A" stroke-width="2.75" stroke-linecap="round" stroke-linejoin="round"/>
    <path d="M2.24609 20L9.12109 21.375L9.80859 17.9375M15.3086 26.875L18.7461 19.3125L11.1836 14.5L15.9961 9L20.1211 14.5L25.6211 17.25" stroke="#7A7A7A" stroke-width="2.75" stroke-linecap="round" stroke-linejoin="round"/>
</svg>

