<svg width="30" height="29" viewBox="0 0 30 29" fill="none" xmlns="http://www.w3.org/2000/svg">
    <path d="M16.875 3.5C16.875 3.86467 17.0199 4.21441 17.2777 4.47227C17.5356 4.73013 17.8853 4.875 18.25 4.875C18.6147 4.875 18.9644 4.73013 19.2223 4.47227C19.4801 4.21441 19.625 3.86467 19.625 3.5C19.625 3.13533 19.4801 2.78559 19.2223 2.52773C18.9644 2.26987 18.6147 2.125 18.25 2.125C17.8853 2.125 17.5356 2.26987 17.2777 2.52773C17.0199 2.78559 16.875 3.13533 16.875 3.5Z" stroke="#DCFF2C" stroke-width="2.75" stroke-linecap="round" stroke-linejoin="round"/>
    <path d="M27.1875 11.75C27.3698 11.75 27.5447 11.6776 27.6736 11.5486C27.8026 11.4197 27.875 11.2448 27.875 11.0625C27.875 10.8802 27.8026 10.7053 27.6736 10.5764C27.5447 10.4474 27.3698 10.375 27.1875 10.375C27.0052 10.375 26.8303 10.4474 26.7014 10.5764C26.5724 10.7053 26.5 10.8802 26.5 11.0625C26.5 11.2448 26.5724 11.4197 26.7014 11.5486C26.8303 11.6776 27.0052 11.75 27.1875 11.75Z" fill="#DCFF2C" stroke="#DCFF2C" stroke-width="2.75" stroke-linecap="round" stroke-linejoin="round"/>
    <path d="M1.75 20L8.625 21.375L9.3125 17.9375M14.8125 26.875L18.25 19.3125L10.6875 14.5L15.5 9L19.625 14.5L25.125 17.25" stroke="#DCFF2C" stroke-width="2.75" stroke-linecap="round" stroke-linejoin="round"/>
</svg>
