<svg width="28" height="28" viewBox="0 0 28 28" fill="none" xmlns="http://www.w3.org/2000/svg">
    <path fill-rule="evenodd" clip-rule="evenodd" d="M14.0012 3.20841C12.0673 3.20841 10.2127 3.97664 8.84521 5.34409C7.47776 6.71155 6.70953 8.56621 6.70953 10.5001C6.70953 12.4339 7.47776 14.2886 8.84521 15.6561C10.2127 17.0235 12.0673 17.7917 14.0012 17.7917C15.9351 17.7917 17.7897 17.0235 19.1572 15.6561C20.5246 14.2886 21.2929 12.4339 21.2929 10.5001C21.2929 8.56621 20.5246 6.71155 19.1572 5.34409C17.7897 3.97664 15.9351 3.20841 14.0012 3.20841ZM4.95953 10.5001C4.96047 9.17896 5.25091 7.8741 5.81041 6.67731C6.36991 5.48052 7.18488 4.42087 8.19798 3.57294C9.21107 2.72501 10.3977 2.10938 11.6743 1.76939C12.9509 1.4294 14.2865 1.37329 15.5872 1.60503C16.8878 1.83676 18.1219 2.3507 19.2025 3.11069C20.2831 3.87067 21.1841 4.85824 21.842 6.00389C22.4999 7.14954 22.8987 8.42545 23.0105 9.74184C23.1222 11.0582 22.9441 12.3831 22.4887 13.6232L25.158 16.3859C25.4579 16.6974 25.7075 16.9564 25.8942 17.1722C26.0785 17.3846 26.2675 17.6272 26.3784 17.9096C26.768 18.8954 26.4554 20.0621 25.5162 20.6361C25.2479 20.8017 24.9399 20.8694 24.6762 20.9137C24.4055 20.9604 24.0625 20.9954 23.6577 21.0386L23.6297 21.0409C23.0942 21.0981 22.9927 21.1156 22.9239 21.1424C22.8158 21.1847 22.7183 21.2502 22.6383 21.3342C22.5582 21.4183 22.4976 21.5189 22.4607 21.6289C22.4304 21.7106 22.4129 21.8307 22.358 22.3802L22.3557 22.4059C22.3137 22.8271 22.2787 23.1806 22.2355 23.4582C22.1935 23.7266 22.1305 24.0346 21.9754 24.3041C21.427 25.2631 20.2732 25.6224 19.2722 25.1989C18.991 25.0799 18.7519 24.8804 18.5489 24.6914C18.3389 24.4977 18.0904 24.2387 17.7905 23.9272L17.7672 23.9039L14.0012 19.9384L10.2305 23.9109L10.213 23.9284C9.9132 24.2399 9.66353 24.4989 9.4547 24.6926C9.25053 24.8816 9.01136 25.0811 8.73136 25.2001C7.72803 25.6236 6.57536 25.2642 6.02703 24.3052C5.87303 24.0357 5.80886 23.7289 5.76686 23.4582C5.7237 23.1817 5.6887 22.8282 5.64786 22.4082L5.64436 22.3814C5.5907 21.8319 5.57203 21.7129 5.54286 21.6301C5.50595 21.52 5.44534 21.4194 5.36531 21.3354C5.28528 21.2513 5.18779 21.1859 5.0797 21.1436C5.0097 21.1167 4.9082 21.0992 4.3727 21.0421L4.34586 21.0397C3.94103 20.9966 3.59803 20.9604 3.32736 20.9149C3.0637 20.8717 2.7557 20.8029 2.4862 20.6372C1.5482 20.0632 1.23553 18.8966 1.62403 17.9107C1.73603 17.6284 1.92386 17.3857 2.1082 17.1734C2.29486 16.9576 2.54453 16.6986 2.84553 16.3871L5.5137 13.6244C5.14505 12.6241 4.9574 11.5662 4.95953 10.5001ZM6.33386 15.2939L4.12186 17.5841C3.79986 17.9177 3.58286 18.1417 3.4312 18.3179C3.36327 18.3892 3.30305 18.4674 3.25153 18.5512C3.14653 18.8196 3.25153 19.0459 3.39036 19.1381C3.40086 19.1416 3.46036 19.1614 3.6167 19.1882C3.8267 19.2232 4.11836 19.2547 4.55703 19.3014L4.64453 19.3107C5.0412 19.3516 5.39236 19.3889 5.7062 19.5091C6.40503 19.7774 6.93936 20.3374 7.1902 21.0397C7.3022 21.3536 7.3372 21.7082 7.37686 22.1212L7.3862 22.2087C7.43053 22.6626 7.46086 22.9659 7.49586 23.1887C7.5262 23.3777 7.54953 23.4384 7.5507 23.4419C7.64403 23.5994 7.83536 23.6764 8.04653 23.5877C8.04653 23.5877 8.10486 23.5562 8.26353 23.4081C8.4327 23.2517 8.64853 23.0289 8.96936 22.6964L8.9717 22.6941L12.145 19.3504C10.9534 19.0998 9.82453 18.6114 8.82603 17.9144C7.82753 17.2174 6.9799 16.3261 6.33386 15.2939ZM15.8574 19.3516C17.0493 19.101 18.1785 18.6125 19.1772 17.9153C20.1759 17.218 21.0236 16.3265 21.6697 15.2939L23.8817 17.5841C24.2037 17.9177 24.4195 18.1417 24.5712 18.3179C24.7147 18.4812 24.7474 18.5454 24.7509 18.5512C24.8559 18.8196 24.7509 19.0459 24.6132 19.1381C24.6015 19.1416 24.5432 19.1614 24.3869 19.1882C24.1757 19.2232 23.8852 19.2547 23.4454 19.3014L23.3579 19.3107C22.9624 19.3516 22.61 19.3889 22.2962 19.5091C21.5985 19.7774 21.063 20.3374 20.8122 21.0397C20.7002 21.3536 20.6652 21.7082 20.6255 22.1212L20.6162 22.2087C20.5719 22.6626 20.5415 22.9659 20.5065 23.1887C20.4774 23.3777 20.4529 23.4384 20.4529 23.4419C20.3595 23.5994 20.167 23.6776 19.9547 23.5877H19.957C19.957 23.5877 19.8987 23.5562 19.7389 23.4081C19.4976 23.1768 19.2623 22.9395 19.033 22.6964L19.0307 22.6941L15.8574 19.3516ZM14.0024 8.20641C13.9347 8.32308 13.8569 8.46075 13.769 8.61941L13.6547 8.82475L13.629 8.87141C13.5369 9.03941 13.3852 9.31708 13.132 9.50958C12.8742 9.70558 12.5627 9.77325 12.3819 9.81291L12.3317 9.82341L12.1089 9.87358C11.9035 9.92025 11.7379 9.95758 11.5955 9.99375C11.6877 10.1069 11.8079 10.2492 11.9642 10.4324L12.1159 10.6097L12.1509 10.6494C12.2769 10.7952 12.481 11.0286 12.5744 11.3319C12.6677 11.6306 12.635 11.9386 12.6152 12.1322L12.6094 12.1871L12.586 12.4239C12.5683 12.6026 12.5523 12.7815 12.5382 12.9606C12.6595 12.9069 12.7972 12.8439 12.9617 12.7681L13.1705 12.6724L13.2172 12.6491C13.3852 12.5709 13.6769 12.4344 14.0012 12.4344C14.3267 12.4344 14.6172 12.5709 14.7852 12.6502L14.8319 12.6724L15.0419 12.7681C15.2052 12.8439 15.3429 12.9081 15.4654 12.9606L15.4164 12.4239L15.393 12.1871L15.3872 12.1322C15.3674 11.9374 15.3359 11.6306 15.428 11.3319C15.5214 11.0286 15.7255 10.7952 15.8515 10.6494L15.8865 10.6097L16.0382 10.4324C16.1945 10.2492 16.3147 10.1069 16.408 9.99375C16.2657 9.95875 16.0989 9.92025 15.8947 9.87358L15.6719 9.82341L15.6217 9.81175C15.4397 9.77325 15.1294 9.70558 14.8704 9.50841C14.6172 9.31708 14.4655 9.03941 14.3745 8.87258L14.3477 8.82475L14.2334 8.61941C14.1463 8.46075 14.0689 8.32308 14.0012 8.20641M12.8497 6.76675C13.0504 6.50425 13.4155 6.12508 14 6.12508C14.5857 6.12508 14.9509 6.50425 15.1515 6.76675C15.3429 7.01641 15.5365 7.36291 15.7349 7.71875L15.7605 7.76658L15.876 7.97308L15.9414 8.08975L16.0569 8.11658L16.2785 8.16675L16.3345 8.17841C16.7172 8.26591 17.0964 8.35108 17.388 8.46658C17.7112 8.59375 18.1464 8.83991 18.3155 9.38241C18.4812 9.91325 18.2724 10.3636 18.0904 10.6541C17.9212 10.9224 17.6657 11.2211 17.402 11.5279L17.367 11.5687L17.2154 11.7472L17.1197 11.8604L17.1337 12.0179L17.157 12.2547L17.1617 12.3084C17.2025 12.7191 17.241 13.1157 17.2259 13.4331C17.2119 13.7667 17.1325 14.2707 16.6799 14.6126C16.2132 14.9672 15.6999 14.8902 15.3732 14.7957C15.0722 14.7106 14.7175 14.5461 14.3582 14.3816L14.308 14.3582L14.0992 14.2614L14 14.2159L13.9009 14.2626L13.6932 14.3582L13.6419 14.3816C13.2837 14.5461 12.9279 14.7106 12.6269 14.7957C12.3002 14.8891 11.7869 14.9672 11.3202 14.6126C10.8687 14.2707 10.7894 13.7667 10.7742 13.4342C10.7602 13.1157 10.7975 12.7191 10.8384 12.3084L10.8442 12.2547L10.8675 12.0179L10.8815 11.8604L10.7847 11.7472L10.633 11.5687L10.598 11.5279C10.3355 11.2211 10.0789 10.9212 9.9097 10.6529C9.7277 10.3636 9.52003 9.91325 9.68453 9.38125C9.8537 8.84108 10.29 8.59375 10.612 8.46658C10.9037 8.35108 11.284 8.26591 11.6667 8.17958L11.7204 8.16791L11.9432 8.11658L12.0599 8.08975L12.1252 7.97308L12.2395 7.76658L12.2664 7.71875C12.4647 7.36291 12.6572 7.01641 12.8497 6.76675Z" fill="#7A7A7A"/>
</svg>
