<svg width="33" height="33" viewBox="0 0 33 33" fill="none" xmlns="http://www.w3.org/2000/svg">
    <path d="M23.375 5.5V2.75H9.625V5.5H2.75V15.125C2.75 16.6375 3.9875 17.875 5.5 17.875H9.7625C10.0336 19.1955 10.6862 20.4074 11.6394 21.3606C12.5926 22.3138 13.8045 22.9664 15.125 23.2375V26.235C11 26.8675 11 30.25 11 30.25H22C22 30.25 22 26.8675 17.875 26.235V23.2375C19.1955 22.9664 20.4074 22.3138 21.3606 21.3606C22.3138 20.4074 22.9664 19.1955 23.2375 17.875H27.5C29.0125 17.875 30.25 16.6375 30.25 15.125V5.5H23.375ZM5.5 15.125V8.25H9.625V15.125H5.5ZM20.625 16.5C20.625 18.7687 18.7687 20.625 16.5 20.625C14.2312 20.625 12.375 18.7687 12.375 16.5V5.5H20.625V16.5ZM27.5 15.125H23.375V8.25H27.5V15.125Z" fill="#DCFF2C"/>
</svg>
