<svg width="29" height="29" viewBox="0 0 29 29" fill="none" xmlns="http://www.w3.org/2000/svg">
    <path d="M24.2222 6.16797H4.77778C3.24365 6.16797 2 7.41162 2 8.94575V24.2235C2 25.7577 3.24365 27.0013 4.77778 27.0013H24.2222C25.7563 27.0013 27 25.7577 27 24.2235V8.94575C27 7.41162 25.7563 6.16797 24.2222 6.16797Z" stroke="#7A7A7A" stroke-width="2.77778"/>
    <path d="M2.69516 11.0291C2.69813 10.0606 2.71324 9.33865 2.78998 8.7682C2.88134 8.08912 3.04842 7.72942 3.30494 7.4729C3.56145 7.21639 3.92115 7.0493 4.60023 6.95795C5.29941 6.86389 6.22618 6.86241 7.55556 6.86241H21.4444C22.7738 6.86241 23.7006 6.86389 24.3998 6.95795C25.0789 7.0493 25.4386 7.21639 25.6951 7.4729C25.9516 7.72942 26.1187 8.08912 26.21 8.7682C26.2868 9.33865 26.3019 10.0606 26.3048 11.0291H2.69516Z" stroke="#7A7A7A" stroke-width="1.38889"/>
    <path d="M7.55469 2V6.16667M21.4436 2V6.16667" stroke="#7A7A7A" stroke-width="2.77778" stroke-linecap="round"/>
</svg>
