<svg width="30" height="30" viewBox="0 0 30 30" fill="none" xmlns="http://www.w3.org/2000/svg">
    <path d="M25.1111 6.33203H4.88889C3.2934 6.33203 2 7.62543 2 9.22092V25.1098C2 26.7053 3.2934 27.9987 4.88889 27.9987H25.1111C26.7066 27.9987 28 26.7053 28 25.1098V9.22092C28 7.62543 26.7066 6.33203 25.1111 6.33203Z" stroke="white" stroke-width="2.91667"/>
    <path d="M2.72994 11.3806C2.73307 10.3769 2.7489 9.62864 2.82846 9.03719C2.92337 8.33172 3.09677 7.95934 3.36204 7.69407C3.62731 7.42881 3.99969 7.2554 4.70516 7.16049C5.43174 7.06275 6.39503 7.0612 7.77778 7.0612H22.2222C23.605 7.0612 24.5683 7.06275 25.2948 7.16049C26.0003 7.2554 26.3727 7.42881 26.638 7.69407C26.9032 7.95934 27.0766 8.33172 27.1715 9.03719C27.2511 9.62864 27.2669 10.3769 27.2701 11.3806H2.72994Z" fill="black" stroke="white" stroke-width="1.45833"/>
    <path d="M7.77734 2V6.33333M22.2218 2V6.33333" stroke="white" stroke-width="2.91667" stroke-linecap="round"/>
</svg>
