<svg width="40" height="40" viewBox="0 0 40 40" fill="none" xmlns="http://www.w3.org/2000/svg">
    <path d="M20.0013 3.33203C20.4433 3.33203 20.8673 3.50763 21.1798 3.82019C21.4924 4.13275 21.668 4.55667 21.668 4.9987V22.642L25.4896 18.8204C25.804 18.5168 26.225 18.3488 26.662 18.3526C27.099 18.3564 27.517 18.5317 27.826 18.8407C28.135 19.1497 28.3103 19.5677 28.3141 20.0047C28.3179 20.4417 28.1499 20.8627 27.8463 21.177L21.1796 27.8437C20.8671 28.1562 20.4432 28.3317 20.0013 28.3317C19.5594 28.3317 19.1355 28.1562 18.823 27.8437L12.1563 21.177C11.9971 21.0233 11.8701 20.8394 11.7828 20.636C11.6955 20.4327 11.6495 20.214 11.6476 19.9927C11.6456 19.7714 11.6878 19.5519 11.7716 19.3471C11.8554 19.1423 11.9792 18.9562 12.1356 18.7997C12.2921 18.6432 12.4782 18.5195 12.683 18.4357C12.8879 18.3519 13.1073 18.3097 13.3286 18.3116C13.5499 18.3135 13.7686 18.3595 13.972 18.4469C14.1753 18.5342 14.3592 18.6612 14.513 18.8204L18.3346 22.642V4.9987C18.3346 4.55667 18.5102 4.13275 18.8228 3.82019C19.1354 3.50763 19.5593 3.33203 20.0013 3.33203ZM8.33464 28.332C8.77666 28.332 9.20059 28.5076 9.51315 28.8202C9.82571 29.1327 10.0013 29.5567 10.0013 29.9987V33.332H30.0013V29.9987C30.0013 29.5567 30.1769 29.1327 30.4895 28.8202C30.802 28.5076 31.2259 28.332 31.668 28.332C32.11 28.332 32.5339 28.5076 32.8465 28.8202C33.159 29.1327 33.3346 29.5567 33.3346 29.9987V33.332C33.3346 34.2161 32.9834 35.0639 32.3583 35.6891C31.7332 36.3142 30.8854 36.6654 30.0013 36.6654H10.0013C9.11725 36.6654 8.2694 36.3142 7.64428 35.6891C7.01916 35.0639 6.66797 34.2161 6.66797 33.332V29.9987C6.66797 29.5567 6.84356 29.1327 7.15612 28.8202C7.46869 28.5076 7.89261 28.332 8.33464 28.332Z" fill="#4B4B4B"/>
</svg>
