<svg width="26" height="30" viewBox="0 0 26 30" fill="none" xmlns="http://www.w3.org/2000/svg">
<path d="M17.8743 28.1333C17.9393 28.6333 17.7768 29.1667 17.4031 29.5167C17.2528 29.6712 17.0743 29.7938 16.8777 29.8774C16.6812 29.961 16.4705 30.0041 16.2577 30.0041C16.0449 30.0041 15.8342 29.961 15.6376 29.8774C15.4411 29.7938 15.2625 29.6712 15.1122 29.5167L8.59686 22.8333C8.41975 22.6556 8.28508 22.4382 8.20335 22.1983C8.12162 21.9583 8.09503 21.7022 8.12567 21.45V12.9167L0.343002 2.7C0.0791523 2.35255 -0.0399022 1.9121 0.0118536 1.47488C0.0636094 1.03767 0.281968 0.639244 0.619214 0.366667C0.927922 0.133333 1.26912 0 1.62657 0H24.3734C24.7309 0 25.0721 0.133333 25.3808 0.366667C25.718 0.639244 25.9364 1.03767 25.9881 1.47488C26.0399 1.9121 25.9208 2.35255 25.657 2.7L17.8743 12.9167V28.1333ZM4.94112 3.33333L11.3752 11.7667V20.9667L14.6248 24.3V11.75L21.0589 3.33333H4.94112Z" fill="#1F1F1F"/>
</svg>
