<svg width="310" height="35" viewBox="0 0 310 35" fill="none" xmlns="http://www.w3.org/2000/svg">
    <path d="M92.6803 0C109.599 0 110.098 3.94204 120.499 4.358C130.9 4.77396 133.031 0 148.318 0C163.604 0 174.666 5.35773 174.993 17.3391C175.32 29.3205 164.098 36.6596 148.318 34.6782C132.537 32.6968 131.892 30.119 120.495 30.119C109.099 30.119 108.113 34.6782 92.6803 34.6782C77.248 34.6782 66.2623 29.3205 66.0048 17.3391C65.7474 5.35773 75.7616 0 92.6803 0ZM143.364 12.5227C138.982 12.7609 120.499 16.8437 120.499 16.8437C120.499 16.8437 107.614 13.2753 97.6343 12.5227C87.6548 11.7701 80.3841 11.6674 80.3841 17.3391C80.3841 23.0108 90.132 22.1186 97.6343 22.1555C105.137 22.1925 120.499 16.8437 120.499 16.8437C120.499 16.8437 138.41 21.6232 143.364 22.1555C148.318 22.6879 163.109 23.284 162.767 17.3391C162.425 11.3943 147.745 12.2845 143.364 12.5227Z" fill="#D4FC07"/>
    <path d="M270.349 35V12.6571H246V1H310V12.6571H285.555V35H270.349Z" fill="#D4FC07"/>
    <path d="M242 1V17.7606C242 27.0028 234.445 35 225.158 35H194.842C185.555 35 178 27.0028 178 17.7606V1H193.206V17.7606C193.206 20.3944 195.371 22.5493 198.018 22.5493H221.982C224.629 22.5493 226.794 20.3944 226.794 17.7606V1H242Z" fill="#D4FC07"/>
    <path d="M47.6862 22.3714V18H63V35H16.9615C7.60846 35 0 27.3743 0 18C0 8.62572 7.60846 1 16.9615 1H63V13.6286H20.1115C17.4462 13.6286 15.2654 15.3286 15.2654 18C15.2654 20.6714 17.4462 22.3714 20.1115 22.3714H47.6862Z" fill="#D4FC07"/>
</svg>
