<svg width="35" height="35" viewBox="0 0 35 35" fill="none" xmlns="http://www.w3.org/2000/svg">
<path d="M26.9857 12C26.7865 14.8243 24.736 17 22.5 17C20.264 17 18.2101 14.825 18.0143 12C17.8104 9.06181 19.8066 7 22.5 7C25.1934 7 27.1896 9.11528 26.9857 12Z" stroke="#1F1F1F" stroke-width="2.1875" stroke-linecap="round" stroke-linejoin="round"/>
<path d="M23 21C18.4742 21 14.122 23.3121 13.0317 27.815C12.8872 28.4107 13.2504 29 13.8456 29H32.1551C32.7502 29 33.1114 28.4107 32.969 27.815C31.8787 23.24 27.5265 21 23 21Z" stroke="#1F1F1F" stroke-width="2.1875" stroke-miterlimit="10"/>
<path d="M12.9891 12.9959C12.835 15.2359 11.2301 17 9.5 17C7.76994 17 6.16233 15.2366 6.01091 12.9959C5.85358 10.6655 7.41577 9 9.5 9C11.5842 9 13.1464 10.7083 12.9891 12.9959Z" stroke="#1F1F1F" stroke-width="2.1875" stroke-linecap="round" stroke-linejoin="round"/>
<path d="M14 20.768C12.7552 20.2133 11.3843 20 9.93126 20C6.34526 20 2.89028 21.7339 2.02481 25.1112C1.91102 25.558 2.19928 26 2.67098 26H10.414" stroke="#1F1F1F" stroke-width="2.1875" stroke-miterlimit="10" stroke-linecap="round"/>
</svg>
