<svg width="35" height="35" viewBox="0 0 35 35" fill="none" xmlns="http://www.w3.org/2000/svg">
    <path d="M27.4793 11.4844C27.279 14.2646 25.2166 16.4062 22.9675 16.4062C20.7185 16.4062 18.6527 14.2652 18.4558 11.4844C18.2507 8.59209 20.2585 6.5625 22.9675 6.5625C25.6766 6.5625 27.6843 8.64473 27.4793 11.4844Z" stroke="#7A7A7A" stroke-width="2.1875" stroke-linecap="round" stroke-linejoin="round"/>
    <path d="M22.9685 20.7812C18.5135 20.7812 14.2294 22.994 13.1562 27.3034C13.014 27.8735 13.3715 28.4375 13.9573 28.4375H31.9803C32.5661 28.4375 32.9216 27.8735 32.7815 27.3034C31.7082 22.925 27.4241 20.7812 22.9685 20.7812Z" stroke="#7A7A7A" stroke-width="2.1875" stroke-miterlimit="10"/>
    <path d="M13.6754 12.7107C13.5154 14.9311 11.8488 16.6797 10.0523 16.6797C8.25587 16.6797 6.58653 14.9317 6.4293 12.7107C6.26592 10.4009 7.88809 8.75 10.0523 8.75C12.2166 8.75 13.8388 10.4433 13.6754 12.7107Z" stroke="#7A7A7A" stroke-width="2.1875" stroke-linecap="round" stroke-linejoin="round"/>
    <path d="M14.0827 20.9155C12.8488 20.3502 11.4898 20.1328 10.0495 20.1328C6.49481 20.1328 3.07 21.8999 2.21209 25.3418C2.0993 25.7971 2.38504 26.2476 2.85262 26.2476H10.528" stroke="#7A7A7A" stroke-width="2.1875" stroke-miterlimit="10" stroke-linecap="round"/>
</svg>
