<svg width="41" height="41" viewBox="0 0 41 41" fill="none" xmlns="http://www.w3.org/2000/svg">
<path d="M20.5013 23.9167C24.2699 23.9167 27.3346 20.8519 27.3346 17.0833C27.3346 13.3147 24.2699 10.25 20.5013 10.25C16.7327 10.25 13.668 13.3147 13.668 17.0833C13.668 20.8519 16.7327 23.9167 20.5013 23.9167ZM20.5013 13.6667C22.3856 13.6667 23.918 15.199 23.918 17.0833C23.918 18.9676 22.3856 20.5 20.5013 20.5C18.617 20.5 17.0846 18.9676 17.0846 17.0833C17.0846 15.199 18.617 13.6667 20.5013 13.6667Z" fill="#7A7A7A"/>
<path d="M19.508 37.2669C19.7973 37.4729 20.1437 37.5836 20.4988 37.5836C20.854 37.5836 21.2004 37.4729 21.4897 37.2669C22.009 36.8996 34.2151 28.0863 34.1655 17.0846C34.1655 9.54918 28.0343 3.41797 20.4988 3.41797C12.9634 3.41797 6.83218 9.54918 6.83218 17.0761C6.78264 28.0863 18.9887 36.8996 19.508 37.2669ZM20.4988 6.83464C26.1517 6.83464 30.7488 11.4318 30.7488 17.0932C30.7847 24.6748 23.2527 31.4825 20.4988 33.7153C17.7467 31.4808 10.213 24.6713 10.2488 17.0846C10.2488 11.4318 14.846 6.83464 20.4988 6.83464Z" fill="#7A7A7A"/>
</svg>
