<svg width="60" height="60" viewBox="0 0 60 60" fill="none" xmlns="http://www.w3.org/2000/svg">
    <path d="M52.3991 8.66095C52.3991 8.66095 57.2793 6.78027 56.8711 11.3473C56.7367 13.228 55.5169 19.811 54.5673 26.9303L51.3138 48.0212C51.3138 48.0212 51.0425 51.111 48.6017 51.6485C46.1622 52.1848 42.5018 49.7678 41.8234 49.2303C41.2808 48.8268 31.656 42.7814 28.2668 39.8269C27.3172 39.02 26.2319 37.4087 28.4025 35.528L42.6374 22.0939C44.2642 20.4801 45.8909 16.7187 39.1126 21.287L20.1319 34.0483C20.1319 34.0483 17.9625 35.3927 13.8963 34.1836L5.08298 31.496C5.08298 31.496 1.8295 29.4813 7.38805 27.4665C20.9459 21.1529 37.6215 14.7052 52.3979 8.65971" fill="#D4FC07"/>
</svg>
