<svg width="60" height="60" viewBox="0 0 60 60" fill="none" xmlns="http://www.w3.org/2000/svg">
    <path d="M10.4553 10.4553C7.27344 13.6674 7.27344 18.8037 7.27344 29.0916V30.9098C7.27344 41.1825 7.27344 46.3189 10.4553 49.5462C13.6674 52.728 18.8037 52.728 29.0916 52.728H30.9098C41.1825 52.728 46.3189 52.728 49.5462 49.5462C52.728 46.334 52.728 41.1977 52.728 30.9098V29.0916C52.728 18.8189 52.728 13.6825 49.5462 10.4553C46.334 7.27344 41.1977 7.27344 30.9098 7.27344H29.0916C18.8189 7.27344 13.6825 7.27344 10.4553 10.4553ZM14.9401 21.1068H20.1522C20.3189 29.7734 24.1371 33.4401 27.1674 34.1977V21.1068H32.0613V28.5765C35.0462 28.2583 38.1977 24.8492 39.2583 21.0916H44.1371C43.739 23.0366 42.9442 24.8787 41.8024 26.5028C40.6606 28.1269 39.1962 29.4982 37.5007 30.531C39.3932 31.4726 41.0645 32.8048 42.4044 34.4398C43.7442 36.0747 44.722 37.9752 45.2734 40.0159H39.8946C38.7431 36.4249 35.8643 33.6371 32.0613 33.2583V40.0159H31.4553C21.0916 40.0159 15.1825 32.9249 14.9401 21.1068Z" fill="#D4FC07"/>
</svg>
